<svg id="line" viewBox="0 0 64 64" xmlns="http://www.w3.org/2000/svg" width="299.988" height="299.988" version="1.1" xmlns:xlink="http://www.w3.org/1999/xlink" xmlns:svgjs="http://svgjs.dev/svgjs"><g width="100%" height="100%" transform="matrix(1,0,0,1,0,0)"><path d="m33.68768 42.65948c1.2636.23334 1.78493-2.34808.52991-2.62324-1.26358-.23339-1.78482 2.34811-.52991 2.62324z" fill="#fffefe" fill-opacity="1" data-original-color="#000000ff" stroke="none" stroke-opacity="1"/><path d="m37.52936 45.19104c.79189-1.41767-.73274-2.29762-1.56441-.90316-.79176 1.41767.73283 2.29771 1.56441.90316z" fill="#fffefe" fill-opacity="1" data-original-color="#000000ff" stroke="none" stroke-opacity="1"/><path d="m30.31232 42.65948c1.2551-.27548.73334-2.85688-.53002-2.62322-1.25511.2755-.73326 2.85681.53002 2.62322z" fill="#fffefe" fill-opacity="1" data-original-color="#000000ff" stroke="none" stroke-opacity="1"/><path d="m28.03503 44.28784c-.83184-1.39448-2.35632-.51427-1.56437.90323.83175 1.39458 2.35619.51428 1.56437-.90323z" fill="#fffefe" fill-opacity="1" data-original-color="#000000ff" stroke="none" stroke-opacity="1"/><path d="m29.73828 44.72852c-2.81762 1.51976-2.36692 5.96665 2.14155 4.5957.6641.00985 1.42023.36755 1.91901.29383 3.17637-.11954 2.78266-3.80122.57026-4.88165-.79013-2.55815-3.47737-3.1811-4.63081-.00788zm1.87988.68262c.17969-.5332.3916-.78125.42285-.81152.06934.02832.27441.26367.43359.78027.14844.47363.46191.8584.88477 1.08398.44401.26561.88682.65741.71488 1.11034-.09281.05568-.52836.09279-1.28227-.15038-.48194-.15423-.99257-.15976-1.47754-.01758-.95784.22273-1.46273.37669-1.32225-.15622.24212-.73791 1.45348-.9596 1.62596-1.8389z" fill="#fffefe" fill-opacity="1" data-original-color="#000000ff" stroke="none" stroke-opacity="1"/><path d="m32 10.30078c-10.03027 0-29 1.46484-29 7.00879v7.09375c0 5.30353 13.38184 8.04248 26.07758 8.38953.37134.75378 1.07336 1.3139 1.92242 1.47595v2.52014c-10.47868 1.55628-9.65327 16.56883 1.0001 16.91029 10.65643-.34678 11.47785-15.35093.9998-16.91029.0001 0 .0001-2.51727.0001-2.51727.8446-.16125 1.55206-.71851 1.92285-1.47882 12.69568-.34711 26.07715-3.08606 26.07715-8.38953v-7.09375c0-5.54395-18.96973-7.00879-29-7.00879zm0 2c17.72656 0 27 3.26074 27 5.00879 0 .43011-.99677 1.513-4.70251 2.59302-8.15617-2.35693-24.48063-2.91367-34.65491-1.71694-1.29664.16137-1.10295 2.10553.21489 1.98817 3.70992-.40038 7.79585-.60351 12.14253-.60351 6.62903 0 12.84961.4906 17.76807 1.37427-4.3042.77673-9.64441 1.2536-15.33124 1.35242-.49438-.50861-1.18292-.82727-1.94659-.82727h-.98047c-.76367 0-1.45221.31866-1.94659.82727-5.67999-.09869-11.01398-.57452-15.31665-1.34998.95079-.32778 3.10293.06846 2.99375-1.4782-.07816-.54695-.58305-.93074-1.13187-.8487-2.41809.34662-4.56262.77966-6.40228 1.28339-3.70825-1.07971-4.70612-2.16357-4.70612-2.59393 0-1.74805 9.27344-5.00879 27-5.00879zm-27 12.10254v-4.29486c1.05292.65894 2.50604 1.25757 4.41992 1.79584 4.72229 1.34497 11.72845 2.20013 19.37012 2.37811v6.49384c-15.3183-.46136-23.79004-4.01355-23.79004-6.37292zm33.4873 20.80859c0 3.57715-2.91016 6.4873-6.4873 6.4873-8.59444-.326-8.59211-12.64991.00008-12.97462 3.57707 0 6.48722 2.91017 6.48722 6.48731zm-4.31543-14.40039c-.36848.03585-.71711.23215-.87633.57961-.12608.44234-.23823.92703-.80535.92915-.61572-.01323-1.68331.18411-1.70014-.72073-.00002.00005-.00002-7.40913-.00002-7.40913.02988-.92252 1.08477-.69921 1.70021-.72068.39647-.00003.71971.32322.71971.72068v4.11914c.02262 1.31514 1.97801 1.31414 2-.00004v-4.02712c7.64166-.17798 14.64764-1.03308 19.36719-2.37714 1.91553-.53882 3.36951-1.13782 4.42285-1.797v4.29504c0 2.41309-8.8418 6.08301-24.82812 6.4082z" fill="#fffefe" fill-opacity="1" data-original-color="#000000ff" stroke="none" stroke-opacity="1"/><path d="m7.60614 22.92438c-1.33397.02268-1.33383 2.00726.00004 2.02972 1.3339-.02263 1.33366-2.00725-.00004-2.02972z" fill="#fffefe" fill-opacity="1" data-original-color="#000000ff" stroke="none" stroke-opacity="1"/><path d="m11.19366 24.43646c-1.33395.02264-1.3337 2.00725.00004 2.02972 1.33392-.02268 1.33379-2.00726-.00004-2.02972z" fill="#fffefe" fill-opacity="1" data-original-color="#000000ff" stroke="none" stroke-opacity="1"/><path d="m14.78125 25.45129c-1.33397.02264-1.33384 2.00726.00004 2.02972 1.33391-.02263 1.33366-2.00729-.00004-2.02972z" fill="#fffefe" fill-opacity="1" data-original-color="#000000ff" stroke="none" stroke-opacity="1"/></g></svg>